<?xml version="1.0" encoding="utf-8"?>
<!-- Generator: Adobe Illustrator 24.2.0, SVG Export Plug-In . SVG Version: 6.00 Build 0)  -->
<svg version="1.1" id="Layer_1" xmlns="http://www.w3.org/2000/svg" xmlns:xlink="http://www.w3.org/1999/xlink" x="0px" y="0px"
	 viewBox="0 0 500 500" style="enable-background:new 0 0 500 500;" xml:space="preserve">
<style type="text/css">
	.st0{fill:#FFFFFF;}
	.st1{fill:#E5E5E5;}
	.st2{fill:none;stroke:#556A8A;stroke-width:2;stroke-miterlimit:10;}
	.st3{fill:#55D2F6;stroke:#556A8A;stroke-width:2;stroke-miterlimit:10;}
	.st4{fill:#2BC7F4;}
	.st5{fill:#556A8A;}
</style>
<g>
	<path class="st0" d="M430.7,145.3l-39.3,0.3l-81.4,0.9V273c0,13.1,28.5,24.2,65.4,24.8h1.4c5.1,0,10-0.3,14.5-0.9
		c13.7-0.9,26.7-4,39.3-9.7c8.3-4.3,13.1-9.4,13.1-14.5V145.3H430.7z"/>
	<path class="st1" d="M430.7,145.3v142c-12.5,5.4-25.6,8.8-39.3,9.7V145.8L430.7,145.3z"/>
	<path class="st2" d="M310.1,146.4V273c0,13.1,28.2,24.2,65.4,24.8h1.4c37.8-0.6,66.9-11.7,66.9-24.8V145.3"/>
	<path class="st3" d="M444.1,146.7c0,13.4-29.9,24.2-66.9,24.2s-66.9-10.8-66.9-24.2c0-13.4,30.7-24.2,67.7-24.2
		C415.1,122.5,444.1,133.3,444.1,146.7"/>
</g>
<g id="ICONS-64x">
	<rect x="5.6" y="147.8" class="st2" width="46.9" height="143.1"/>
	<rect x="99.5" y="166.6" class="st2" width="39.8" height="124.3"/>
	<rect x="52.6" y="147.8" class="st2" width="46.9" height="143.1"/>
	<line class="st2" x1="5.6" y1="164.3" x2="50.3" y2="164.3"/>
	<line class="st2" x1="5.6" y1="274.5" x2="50.3" y2="274.5"/>
	<rect x="101.8" y="180.6" class="st1" width="13.9" height="96.2"/>
	<line class="st2" x1="99.5" y1="183.1" x2="139.3" y2="183.1"/>
	<rect x="7.9" y="150.1" class="st1" width="42.1" height="11.7"/>
	<rect x="7.9" y="277" class="st1" width="42.1" height="11.7"/>
	<rect x="101.8" y="168.9" class="st1" width="35.3" height="11.7"/>
	<rect x="101.8" y="272.2" class="st1" width="35.3" height="16.5"/>
	<rect x="54.8" y="150.1" class="st1" width="16.5" height="138.3"/>
	<rect x="7.9" y="166.6" class="st1" width="13.9" height="105.6"/>
	<rect x="59.7" y="159.5" class="st4" width="32.7" height="11.7"/>
	<rect x="59.7" y="267.6" class="st4" width="32.7" height="11.7"/>
	<line class="st2" x1="99.5" y1="272.2" x2="139.3" y2="272.2"/>
</g>
<path class="st5" d="M84.4,242.3h5.4c1.4,0,2.8,1.1,2.8,2.8v130.6c0,1.4-1.1,2.8-2.8,2.8h-5.4c-1.4,0-2.8-1.1-2.8-2.8V245.1
	C81.6,243.4,83,242.3,84.4,242.3z"/>
<path class="st0" d="M223.3,318.3l-109-47.2V355c0,30.4,49.8,56.1,109,56.1s109-25.6,109-55.8v-84.5L223.3,318.3z"/>
<path class="st2" d="M223.3,318.3l-109-47.2V355c0,30.4,49.8,56.1,109,56.1s109-25.6,109-55.8v-84.5L223.3,318.3z"/>
<polygon class="st4" points="326.9,267.1 222.1,298.9 119.7,268.5 119.7,307.2 223.3,351 326.9,307.2 "/>
<polygon class="st1" points="65.4,247.4 223.3,188 375.8,247.4 223.3,312.9 "/>
<polygon class="st2" points="381.2,247.4 223.3,188 65.4,247.4 223.3,318 "/>
<path class="st5" d="M76.2,383.4v-21.9c0-12,4-21.9,8.8-21.9h4.3c4.8,0,8.8,9.7,8.8,21.9v21.9H76.2z"/>
<path class="st5" d="M442.9,154.9L442.9,154.9c2.8-2.8,7.4-2.8,10.2,0l42.7,42.7c2.8,2.8,2.8,7.4,0,10.2l0,0
	c-2.8,2.8-7.4,2.8-10.2,0l-42.7-42.7C440.1,162.3,440.1,157.8,442.9,154.9z"/>
<path class="st0" d="M429,102.3c-20.8,0-37.8,17.1-37.8,37.8c0,0.6,0,1.4,0,2c1.1,20.8,18.8,37,39.6,35.9
	c19.3-0.9,35-16.5,35.9-35.9c0-0.6,0-1.4,0-2C466.6,119.4,449.8,102.3,429,102.3z"/>
<path class="st1" d="M466.8,140.2c0,0.6,0,1.4,0,2h-75.4c0-0.6,0-1.4,0-2c0-20.8,16.8-37.8,37.8-37.8
	C450.3,102.3,466.8,119.1,466.8,140.2L466.8,140.2z"/>
<path class="st2" d="M391.2,140.2c0,20.8,17.1,37.8,37.8,37.8s37.8-17.1,37.8-37.8s-16.8-37.8-37.8-37.8
	C407.9,102.3,391.2,119.4,391.2,140.2z"/>
</svg>
