<?xml version="1.0" encoding="utf-8"?>
<!-- Generator: Adobe Illustrator 24.2.0, SVG Export Plug-In . SVG Version: 6.00 Build 0)  -->
<svg version="1.0" id="Layer_1" xmlns="http://www.w3.org/2000/svg" xmlns:xlink="http://www.w3.org/1999/xlink" x="0px" y="0px"
	 viewBox="0 0 500 500" style="enable-background:new 0 0 500 500;" xml:space="preserve">
<style type="text/css">
	.st0{fill:#556A8A;}
	.st1{fill:none;stroke:#556A8A;stroke-width:2;stroke-miterlimit:10;}
	.st2{fill:#E5E5E5;}
	.st3{fill:#2BC7F4;}
	.st4{fill:#FFFFFF;}
	.st5{fill:#55D2F6;}
	.st6{fill:none;stroke:#556A8A;stroke-width:2;stroke-linecap:round;stroke-linejoin:round;}
</style>
<path class="st0" d="M486.4,265.2c0-24.8-20-44.8-44.8-44.8c-4.2,0-8.3,0.7-12.3,1.7c5-22.2-9-44.1-31.1-49.1
	c-10.6-2.4-21.5-0.5-30.7,5.2c-8.3-11.8-21.7-18.6-36.1-18.9c-23.1,0-42.7,19.3-46.2,44.3c-21.9,5.2-38,27.1-38,52.6
	c0,25.5,18.6,64.9,67.2,61.1c0,0,122.9,0,123.4,0C438.3,317.3,486.4,317.3,486.4,265.2z"/>
<g id="ICONS-64x">
	<rect x="6.7" y="171.1" class="st1" width="38.9" height="118.6"/>
	<rect x="84.5" y="186.7" class="st1" width="33" height="103.1"/>
	<rect x="45.6" y="171.1" class="st1" width="38.9" height="118.6"/>
	<line class="st1" x1="6.7" y1="184.8" x2="43.7" y2="184.8"/>
	<line class="st1" x1="6.7" y1="276.1" x2="43.7" y2="276.1"/>
	<rect x="86.4" y="198.2" class="st2" width="11.6" height="79.7"/>
	<line class="st1" x1="84.5" y1="200.3" x2="117.5" y2="200.3"/>
	<rect x="8.5" y="173" class="st2" width="34.9" height="9.7"/>
	<rect x="8.5" y="278.2" class="st2" width="34.9" height="9.7"/>
	<rect x="86.4" y="188.6" class="st2" width="29.2" height="9.7"/>
	<rect x="86.4" y="274.2" class="st2" width="29.2" height="13.7"/>
	<rect x="47.5" y="173" class="st2" width="13.7" height="114.6"/>
	<rect x="8.5" y="186.7" class="st2" width="11.6" height="87.5"/>
	<rect x="51.5" y="180.8" class="st3" width="27.1" height="9.7"/>
	<rect x="51.5" y="270.4" class="st3" width="27.1" height="9.7"/>
	<line class="st1" x1="84.5" y1="274.2" x2="117.5" y2="274.2"/>
</g>
<path class="st0" d="M72,249.4h4.5c1.2,0,2.4,0.9,2.4,2.4V360c0,1.2-0.9,2.4-2.4,2.4H72c-1.2,0-2.4-0.9-2.4-2.4V251.8
	C69.6,250.3,70.8,249.4,72,249.4z"/>
<path class="st4" d="M187.1,312.4l-90.3-39.2v69.6c0,25.2,41.3,46.5,90.3,46.5s90.3-21.2,90.3-46.2v-70L187.1,312.4z"/>
<path class="st1" d="M187.1,312.4l-90.3-39.2v69.6c0,25.2,41.3,46.5,90.3,46.5s90.3-21.2,90.3-46.2v-70L187.1,312.4z"/>
<polygon class="st3" points="272.9,269.9 186.1,296.3 101.2,271.1 101.2,303.2 187.1,339.5 272.9,303.2 "/>
<polygon class="st2" points="56.2,253.7 187.1,204.4 313.5,253.7 187.1,307.9 "/>
<polygon class="st1" points="318,253.7 187.1,204.4 56.2,253.7 187.1,312.1 "/>
<g id="ICONS-64x_1_">
	<path class="st3" d="M491.6,248.7h-1.7c-2.3-11.2-7.6-23-15.6-36.4h-14.7l-56.8,56.8l-10-10l56.8-56.8v-14.6
		c-13.3-8.1-25.2-13.3-36.4-15.6v-1.8c14.7-3.5,39.6-0.6,54.8,9.8l8.2-4.5l10,10l-4.5,8.2C492.2,209.1,495.1,234.1,491.6,248.7z"/>
	<path class="st5" d="M491.6,248.7c-11-70.6-62.7-77.1-78.4-77.5v-0.9c14.7-3.5,39.6-0.6,54.9,9.8l8.2-4.5l10,10l-4.5,8.2
		C492.2,209.1,495.1,234.1,491.6,248.7z"/>
	<path id="icon_bg" class="st6" d="M481.8,193.9l4.5-8.2l-10-10l-8.2,4.5c-15.2-10.4-40.1-13.3-54.8-9.8v1.8
		c11.2,2.3,23,7.6,36.4,15.6v14.6l-56.9,56.8l10,10l56.9-56.8h14.6c8.1,13.3,13.3,25.2,15.6,36.4h1.7
		C495.1,234.1,492.2,209.1,481.8,193.9z"/>
</g>
<path class="st0" d="M65.2,366.4v-18.2c0-9.9,3.3-18.2,7.3-18.2H76c4,0,7.3,8,7.3,18.2v18.2H65.2z"/>
</svg>
