<svg id="Layer_1" data-name="Layer 1" xmlns="http://www.w3.org/2000/svg" viewBox="0 0 488.31 230.95"><path d="M486.38,265.21a44.79,44.79,0,0,0-44.81-44.81,52.65,52.65,0,0,0-12.26,1.65,41.1,41.1,0,0,0-61.8-43.87,44.71,44.71,0,0,0-36.08-18.87c-23.12,0-42.69,19.34-46.23,44.34-21.93,5.19-38,27.12-38,52.6s18.63,64.85,67.22,61.08H437.8C438.27,317.33,486.38,317.33,486.38,265.21Z" transform="translate(-5.66 -159.31)" style="fill:#556a8a"/><g id="ICONS-64x"><rect x="1" y="11.79" width="38.92" height="118.63" style="fill:none;stroke:#556a8a;stroke-miterlimit:10;stroke-width:2px"/><rect x="78.83" y="27.36" width="33.02" height="103.07" style="fill:none;stroke:#556a8a;stroke-miterlimit:10;stroke-width:2px"/><rect x="39.92" y="11.79" width="38.92" height="118.63" style="fill:none;stroke:#556a8a;stroke-miterlimit:10;stroke-width:2px"/><line x1="1" y1="25.47" x2="38.03" y2="25.47" style="fill:none;stroke:#556a8a;stroke-miterlimit:10;stroke-width:2px"/><line x1="1" y1="116.75" x2="38.03" y2="116.75" style="fill:none;stroke:#556a8a;stroke-miterlimit:10;stroke-width:2px"/><rect x="80.72" y="38.92" width="11.56" height="79.72" style="fill:#e5e5e5"/><line x1="78.83" y1="41.04" x2="111.85" y2="41.04" style="fill:none;stroke:#556a8a;stroke-miterlimit:10;stroke-width:2px"/><rect x="2.89" y="13.68" width="34.91" height="9.67" style="fill:#e5e5e5"/><rect x="2.89" y="118.87" width="34.91" height="9.67" style="fill:#e5e5e5"/><rect x="80.72" y="29.25" width="29.25" height="9.67" style="fill:#e5e5e5"/><rect x="80.72" y="114.86" width="29.25" height="13.68" style="fill:#e5e5e5"/><rect x="41.8" y="13.68" width="13.68" height="114.62" style="fill:#e5e5e5"/><rect x="2.89" y="27.36" width="11.56" height="87.5" style="fill:#e5e5e5"/><rect x="45.81" y="21.46" width="27.12" height="9.67" style="fill:#2bc7f4"/><rect x="45.81" y="111.09" width="27.12" height="9.67" style="fill:#2bc7f4"/><line x1="78.83" y1="114.86" x2="111.85" y2="114.86" style="fill:none;stroke:#556a8a;stroke-miterlimit:10;stroke-width:2px"/></g><path d="M72,249.41h4.48a2.36,2.36,0,0,1,2.36,2.35V360a2.36,2.36,0,0,1-2.36,2.36H72A2.37,2.37,0,0,1,69.63,360V251.76A2.36,2.36,0,0,1,72,249.41Z" transform="translate(-5.66 -159.31)" style="fill:#556a8a"/><path d="M187.09,312.38,96.76,273.23V342.8c0,25.24,41.27,46.47,90.33,46.47S277.42,368,277.42,343V273Z" transform="translate(-5.66 -159.31)" style="fill:#fff"/><path d="M187.09,312.38,96.76,273.23V342.8c0,25.24,41.27,46.47,90.33,46.47S277.42,368,277.42,343V273Z" transform="translate(-5.66 -159.31)" style="fill:none;stroke:#556a8a;stroke-miterlimit:10;stroke-width:2px"/><polygon points="267.28 110.61 180.48 137.03 95.58 111.79 95.58 143.87 181.43 180.19 267.28 143.87 267.28 110.61" style="fill:#2bc7f4"/><polygon points="50.53 94.34 181.43 45.05 307.84 94.34 181.43 148.59 50.53 94.34" style="fill:#e5e5e5"/><polygon points="312.32 94.34 181.43 45.05 50.53 94.34 181.43 152.83 312.32 94.34" style="fill:none;stroke:#556a8a;stroke-miterlimit:10;stroke-width:2px"/><g id="ICONS-64x-2" data-name="ICONS-64x"><path d="M491.61,248.73h-1.67c-2.32-11.17-7.56-23-15.63-36.36H459.63l-56.85,56.85-10-10,56.84-56.85V187.74c-13.34-8.06-25.17-13.35-36.35-15.62v-1.75c14.66-3.45,39.57-.58,54.82,9.83l8.23-4.54,10,10-4.54,8.23C492.18,209.15,495.07,234.08,491.61,248.73Z" transform="translate(-5.66 -159.31)" style="fill:#2bc7f4"/><path d="M491.61,248.73c-11-70.57-62.65-77.12-78.42-77.46v-.9c14.73-3.45,39.64-.58,54.89,9.83l8.23-4.54,10,10-4.54,8.23C492.18,209.15,495.07,234.08,491.61,248.73Z" transform="translate(-5.66 -159.31)" style="fill:#55d2f6"/><path id="icon_bg" data-name="icon bg" d="M481.78,193.9l4.54-8.23-10-10-8.24,4.54c-15.24-10.41-40.15-13.28-54.81-9.83v1.75c11.16,2.31,23,7.56,36.35,15.62v14.62l-56.86,56.85,10,10,56.87-56.85h14.61c8.08,13.35,13.35,25.19,15.64,36.36h1.66C495.07,234.08,492.18,209.15,481.78,193.9Z" transform="translate(-5.66 -159.31)" style="fill:none;stroke:#556a8a;stroke-linecap:round;stroke-linejoin:round;stroke-width:2px"/></g><path d="M65.15,366.39V348.23c0-9.91,3.3-18.16,7.31-18.16H76c4,0,7.31,8,7.31,18.16v18.16Z" transform="translate(-5.66 -159.31)" style="fill:#556a8a"/></svg>