<svg xmlns="http://www.w3.org/2000/svg" viewBox="0 0 64 64">
  <defs>
    <style>
      .cls-1 {
        fill: #2bc7f4;
      }

      .cls-2 {
        fill: #55d2f6;
      }

      .cls-3 {
        fill: none;
        stroke: #556a8a;
        stroke-linecap: round;
        stroke-linejoin: round;
        stroke-width: 2px;
      }
    </style>
  </defs>
  <title>i_data-mining</title>
  <g id="ICONS-64x">
    <path class="cls-1" d="M61.17,49.64h-1c-1.39-6.69-4.53-13.78-9.37-21.79H42L7.93,61.92l-6-6L36,21.85V13.09c-8-4.83-15.09-8-21.79-9.36V2.68C23,.61,37.93,2.33,47.07,8.57L52,5.85l6,6-2.72,4.93C61.51,25.92,63.24,40.86,61.17,49.64Z"/>
    <path class="cls-2" d="M61.17,49.64c-6.6-42.29-37.55-46.22-47-46.42V2.68C23,.61,37.93,2.33,47.07,8.57L52,5.85l6,6-2.72,4.93C61.51,25.92,63.24,40.86,61.17,49.64Z"/>
    <path id="icon_bg" class="cls-3" d="M55.28,16.78,58,11.85l-6-6L47.06,8.57C37.93,2.33,23,.61,14.21,2.68V3.73C20.9,5.11,28,8.26,36,13.09v8.76L1.92,55.92l6,6L42,27.85h8.76c4.84,8,8,15.1,9.37,21.79h1C63.24,40.86,61.51,25.92,55.28,16.78Z"/>
  </g>
</svg>
