<?xml version="1.0" encoding="utf-8"?>
<!-- Generator: Adobe Illustrator 22.1.0, SVG Export Plug-In . SVG Version: 6.00 Build 0)  -->
<svg version="1.1" id="Layer_1" xmlns="http://www.w3.org/2000/svg" xmlns:xlink="http://www.w3.org/1999/xlink" x="0px" y="0px"
	 viewBox="0 0 400 140" style="enable-background:new 0 0 400 140;" xml:space="preserve">
<style type="text/css">
	.st0{fill:#E5E5E5;}
	.st1{fill:none;stroke:#556A8A;stroke-width:2;stroke-miterlimit:10;}
	.st2{fill:#2BC7F4;}
	.st3{fill:#556A8A;}
	.st4{fill:#FFFFFF;}
	.st5{fill:#55D2F6;}
	.st6{fill:none;stroke:#556A8A;stroke-width:2;stroke-linecap:round;stroke-linejoin:round;}
</style>
<path class="st0" d="M323.4,69.9c0-10.5-8.5-19-19-19c-1.8,0-3.5,0.3-5.2,0.7c2.1-9.4-3.8-18.7-13.2-20.8c-4.5-1-9.1-0.2-13,2.2
	c-3.5-5-9.2-7.9-15.3-8c-9.8,0-18.1,8.2-19.6,18.8C228.8,46,222,55.3,222,66.1s7.9,27.5,28.5,25.9c0,0,52.1,0,52.3,0
	C303,92,323.4,92,323.4,69.9z"/>
<g id="ICONS-64x">
	<rect x="120" y="30" class="st1" width="16.5" height="50.3"/>
	<rect x="153" y="36.6" class="st1" width="14" height="43.7"/>
	<rect x="136.5" y="30" class="st1" width="16.5" height="50.3"/>
	<line class="st1" x1="120" y1="35.8" x2="135.7" y2="35.8"/>
	<line class="st1" x1="120" y1="74.5" x2="135.7" y2="74.5"/>
	<rect x="153.8" y="41.5" class="st0" width="4.9" height="33.8"/>
	<line class="st1" x1="153" y1="42.4" x2="167" y2="42.4"/>
	<rect x="120.8" y="30.8" class="st0" width="14.8" height="4.1"/>
	<rect x="120.8" y="75.4" class="st0" width="14.8" height="4.1"/>
	<rect x="153.8" y="37.4" class="st0" width="12.4" height="4.1"/>
	<rect x="153.8" y="73.7" class="st0" width="12.4" height="5.8"/>
	<rect x="137.3" y="30.8" class="st0" width="5.8" height="48.6"/>
	<rect x="120.8" y="36.6" class="st0" width="4.9" height="37.1"/>
	<rect x="139" y="34.1" class="st2" width="11.5" height="4.1"/>
	<rect x="139" y="72.1" class="st2" width="11.5" height="4.1"/>
	<line class="st1" x1="153" y1="73.7" x2="167" y2="73.7"/>
</g>
<path class="st3" d="M147.7,63.2h1.9c0.5,0,1,0.4,1,1v45.9c0,0.5-0.4,1-1,1h-1.9c-0.5,0-1-0.4-1-1V64.2
	C146.7,63.6,147.2,63.2,147.7,63.2z"/>
<path class="st4" d="M196.5,89.9l-38.3-16.6v29.5c0,10.7,17.5,19.7,38.3,19.7s38.3-9,38.3-19.6V73.2L196.5,89.9z"/>
<path class="st1" d="M196.5,89.9l-38.3-16.6v29.5c0,10.7,17.5,19.7,38.3,19.7s38.3-9,38.3-19.6V73.2L196.5,89.9z"/>
<polygon class="st2" points="232.9,71.9 196.1,83.1 160.1,72.4 160.1,86 196.5,101.4 232.9,86 "/>
<polygon class="st0" points="141,65 196.5,44.1 250.1,65 196.5,88 "/>
<polygon class="st1" points="252,65 196.5,44.1 141,65 196.5,89.8 "/>
<path class="st3" d="M144.8,112.8v-7.7c0-4.2,1.4-7.7,3.1-7.7h1.5c1.7,0,3.1,3.4,3.1,7.7v7.7H144.8z"/>
<g id="ICONS-64x_1_">
	<path class="st2" d="M325.6,62.9h-0.7c-1-4.7-3.2-9.7-6.6-15.4h-6.2L288,71.6l-4.2-4.2l24.1-24.1v-6.2c-5.7-3.4-10.7-5.7-15.4-6.6
		v-0.7c6.2-1.5,16.8-0.2,23.2,4.2l3.5-1.9l4.2,4.2l-1.9,3.5C325.9,46.1,327.1,56.7,325.6,62.9z"/>
	<path class="st5" d="M325.6,62.9c-4.7-29.9-26.6-32.7-33.3-32.8v-0.4c6.2-1.5,16.8-0.2,23.3,4.2l3.5-1.9l4.2,4.2l-1.9,3.5
		C325.9,46.1,327.1,56.7,325.6,62.9z"/>
	<path id="icon_bg" class="st6" d="M321.5,39.7l1.9-3.5l-4.2-4.2l-3.5,1.9c-6.5-4.4-17-5.6-23.2-4.2v0.7c4.7,1,9.8,3.2,15.4,6.6v6.2
		l-24.1,24.1l4.2,4.2l24.1-24.1h6.2c3.4,5.7,5.7,10.7,6.6,15.4h0.7C327.1,56.7,325.9,46.1,321.5,39.7z"/>
</g>
</svg>
