<?xml version="1.0" encoding="utf-8"?>
<!-- Generator: Adobe Illustrator 22.1.0, SVG Export Plug-In . SVG Version: 6.00 Build 0)  -->
<svg version="1.1" id="Layer_1" xmlns="http://www.w3.org/2000/svg" xmlns:xlink="http://www.w3.org/1999/xlink" x="0px" y="0px"
	 viewBox="0 0 400 140" style="enable-background:new 0 0 400 140;" xml:space="preserve">
<style type="text/css">
	.st0{fill:#FFFFFF;}
	.st1{fill:#E5E5E5;}
	.st2{fill:none;stroke:#556A8A;stroke-width:2;stroke-miterlimit:10;}
	.st3{fill:#55D2F6;stroke:#556A8A;stroke-width:2;stroke-miterlimit:10;}
	.st4{fill:#2BC7F4;}
	.st5{fill:#556A8A;}
</style>
<g>
	<path class="st0" d="M269.4,29.1l-13.8,0.1L227,29.5V74c0,4.6,10,8.5,23,8.7h0.5c1.8,0,3.5-0.1,5.1-0.3c4.8-0.3,9.4-1.4,13.8-3.4
		c2.9-1.5,4.6-3.3,4.6-5.1V29.1L269.4,29.1z"/>
	<path class="st1" d="M269.4,29.1v49.9c-4.4,1.9-9,3.1-13.8,3.4V29.3L269.4,29.1z"/>
	<path class="st2" d="M227,29.5V74c0,4.6,9.9,8.5,23,8.7h0.5c13.3-0.2,23.5-4.1,23.5-8.7V29.1"/>
	<path class="st3" d="M274.1,29.6c0,4.7-10.5,8.5-23.5,8.5c-13,0-23.5-3.8-23.5-8.5s10.8-8.5,23.8-8.5
		C263.9,21.1,274.1,24.9,274.1,29.6"/>
</g>
<g id="ICONS-64x">
	<rect x="120" y="30" class="st2" width="16.5" height="50.3"/>
	<rect x="153" y="36.6" class="st2" width="14" height="43.7"/>
	<rect x="136.5" y="30" class="st2" width="16.5" height="50.3"/>
	<line class="st2" x1="120" y1="35.8" x2="135.7" y2="35.8"/>
	<line class="st2" x1="120" y1="74.5" x2="135.7" y2="74.5"/>
	<rect x="153.8" y="41.5" class="st1" width="4.9" height="33.8"/>
	<line class="st2" x1="153" y1="42.4" x2="167" y2="42.4"/>
	<rect x="120.8" y="30.8" class="st1" width="14.8" height="4.1"/>
	<rect x="120.8" y="75.4" class="st1" width="14.8" height="4.1"/>
	<rect x="153.8" y="37.4" class="st1" width="12.4" height="4.1"/>
	<rect x="153.8" y="73.7" class="st1" width="12.4" height="5.8"/>
	<rect x="137.3" y="30.8" class="st1" width="5.8" height="48.6"/>
	<rect x="120.8" y="36.6" class="st1" width="4.9" height="37.1"/>
	<rect x="139" y="34.1" class="st4" width="11.5" height="4.1"/>
	<rect x="139" y="72.1" class="st4" width="11.5" height="4.1"/>
	<line class="st2" x1="153" y1="73.7" x2="167" y2="73.7"/>
</g>
<path class="st5" d="M147.7,63.2h1.9c0.5,0,1,0.4,1,1v45.9c0,0.5-0.4,1-1,1h-1.9c-0.5,0-1-0.4-1-1V64.2
	C146.7,63.6,147.2,63.2,147.7,63.2z"/>
<path class="st0" d="M196.5,89.9l-38.3-16.6v29.5c0,10.7,17.5,19.7,38.3,19.7s38.3-9,38.3-19.6V73.2L196.5,89.9z"/>
<path class="st2" d="M196.5,89.9l-38.3-16.6v29.5c0,10.7,17.5,19.7,38.3,19.7s38.3-9,38.3-19.6V73.2L196.5,89.9z"/>
<polygon class="st4" points="232.9,71.9 196.1,83.1 160.1,72.4 160.1,86 196.5,101.4 232.9,86 "/>
<polygon class="st1" points="141,65 196.5,44.1 250.1,65 196.5,88 "/>
<polygon class="st2" points="252,65 196.5,44.1 141,65 196.5,89.8 "/>
<path class="st5" d="M144.8,112.8v-7.7c0-4.2,1.4-7.7,3.1-7.7h1.5c1.7,0,3.1,3.4,3.1,7.7v7.7H144.8z"/>
<title>i_generic-database</title>
<path class="st5" d="M273.7,32.5L273.7,32.5c1-1,2.6-1,3.6,0l15,15c1,1,1,2.6,0,3.6l0,0c-1,1-2.6,1-3.6,0l-15-15
	C272.7,35.1,272.7,33.5,273.7,32.5z"/>
<path class="st0" d="M268.8,14c-7.3,0-13.3,6-13.3,13.3c0,0.2,0,0.5,0,0.7c0.4,7.3,6.6,13,13.9,12.6c6.8-0.3,12.3-5.8,12.6-12.6
	c0-0.2,0-0.5,0-0.7C282,20,276.1,14,268.8,14z"/>
<path class="st1" d="M282.1,27.3c0,0.2,0,0.5,0,0.7h-26.5c0-0.2,0-0.5,0-0.7c0-7.3,5.9-13.3,13.3-13.3S282.1,19.9,282.1,27.3
	L282.1,27.3z"/>
<path class="st2" d="M255.5,27.3c0,7.3,6,13.3,13.3,13.3c7.3,0,13.3-6,13.3-13.3c0-7.3-5.9-13.3-13.3-13.3
	C261.4,14,255.5,20,255.5,27.3z"/>
</svg>
